{"title":"The Smurfs 2011 R5 (Cleaned Audio) (Feel Free) Stumpie1971","uid":6692542,"size":1161938182,"categoryP":"video","categoryS":"movies","magnet":"?xt=urn:btih:2686880876617ed636ecfaa2dc49a0ea831bea1e&amp;dn=The+Smurfs+2011+R5+%28Cleaned+Audio%29+%28Feel+Free%29+Stumpie1971&amp;tr=udp%3A%2F%2Ftracker.openbittorrent.com%3A80&amp;tr=udp%3A%2F%2Fopen.demonii.com%3A1337&amp;tr=udp%3A%2F%2Ftracker.coppersurfer.tk%3A6969&amp;tr=udp%3A%2F%2Fexodus.desync.com%3A6969","seeders":0,"leechers":1,"uploader":"stumpie1971","files":1,"time":1316652455,"description":" &lt;a href=&quot; http://img.sceper.eu/images/img213srs.jpg&quot; rel=&quot;nofollow&quot; target=&quot;_NEW&quot;&gt; http://img.sceper.eu/images/img213srs.jpg&lt;/a&gt;\n  &lt;a href=&quot;\nhttp://img.sceper.eu/images/img213lgl.jpg&quot; rel=&quot;nofollow&quot; target=&quot;_NEW&quot;&gt;\nhttp://img.sceper.eu/images/img213lgl.jpg&lt;/a&gt;\n  &lt;a href=&quot;\nhttp://img.sceper.eu/images/img213kek.jpg&quot; rel=&quot;nofollow&quot; target=&quot;_NEW&quot;&gt;\nhttp://img.sceper.eu/images/img213kek.jpg&lt;/a&gt;\n\n\nFull Credits To Feel Free :)\n\n ######## ######## ######## ##          ######## ########  ######## ######## \n ##       ##       ##       ##          ##       ##     ## ##       ##       \n ##       ##       ##       ##          ##       ##     ## ##       ##       \n ######   ######   ######   ##          ######   ########  ######   ######   \n ##       ##       ##       ##          ##       ##   ##   ##       ##       \n ##       ##       ##       ##          ##       ##    ##  ##       ##       \n ##       ######## ######## ########    ##       ##     ## ######## ########\n\n\n\n Plot:\n When the evil wizard Gargamel chases the tiny blue Smurfs out of their village, they tumble from their magical world and into ours.\n\n\nGenre:Animation | Comedy | Family \n Language:English\n IMDb:\n  &lt;a href=&quot;\nhttp://www.imdb.com/title/tt0472181/&quot; rel=&quot;nofollow&quot; target=&quot;_NEW&quot;&gt;\nhttp://www.imdb.com/title/tt0472181/&lt;/a&gt;\n\n Source:DvD9/LittlebirD Thanks!\n\n Format : MPEG-4\n Format profile : Base Media\n Codec ID : isom\n File size : 1.08 GiB\n Duration : 1h 38mn\n Overall bit rate : 1 720 Kbps\n\n Video\n ID : 1\n Format : AVC\n Format/Info : Advanced Video Codec\n Format profile : &lt;a class=&quot;__cf_email__&quot; href=&quot;/cdn-cgi/l/email-protection&quot; data-cfemail=&quot;b8f0d1dfd0f8f48c9689&quot;&gt;[email&amp;#160;protected]&lt;/a&gt;&lt;script data-cfhash='f9e31' type=&quot;text/javascript&quot;&gt;\n/* &lt;![CDATA[ */!function(){try{var t=&quot;currentScript&quot;in document?document.currentScript:function(){for(var t=document.getElementsByTagName(&quot;script&quot;),e=t.length;e--;)if(t[e].getAttribute(&quot;data-cfhash&quot;))return t[e]}();if(t&amp;&amp;t.previousSibling){var e,r,n,i,c=t.previousSibling,a=c.getAttribute(&quot;data-cfemail&quot;);if(a){for(e=&quot;&quot;,r=parseInt(a.substr(0,2),16),n=2;a.length-n;n+=2)i=parseInt(a.substr(n,2),16)^r,e+=String.fromCharCode(i);e=document.createTextNode(e),c.parentNode.replaceChild(e,c)}t.parentNode.removeChild(t);}}catch(u){}}()/* ]]&gt; */&lt;/script&gt;\n Format settings, CABAC : Yes\n Format settings, ReFrames : 3 frames\n Codec ID : avc1\n Codec ID/Info : Advanced Video Coding\n Duration : 1h 38mn\n Bit rate mode : Variable\n Bit rate : 1 500 Kbps\n Maximum bit rate : 12.0 Mbps\n Width : 720 pixels\n Height : 400 pixels\n Display aspect ratio : 16:9\n Frame rate mode : Constant\n Frame rate : 25.000 fps\n Color space : YUV\n Chroma subsampling : 4:2:0\n Bit depth : 8 bits\n Scan type : Progressive\n Bits/(Pixel*Frame) : 0.208\n Stream size : 1.03 GiB (87%)\n Writing library : x264\n\n\n Audio\n ID : 2\n Format : AAC\n Format/Info : Advanced Audio Codec\n Format version : Version 4\n Format profile : LC\n Format settings, SBR : No\n Codec ID : 40\n Duration : 1h 38mn\n Bit rate mode : Variable\n Bit rate : 224 Kbps\n Maximum bit rate : 279 Kbps\n Channel(s) : 2 channels\n Channel positions : Front: L R\n Sampling rate : 44.1 KHz\n Stream size : 158 MiB (13%)\n\nPLEASE SEED - MANY THANKS (Stumpie1971)\nENJOY ::\n","torrent":{"xt":"urn:btih:2686880876617ed636ecfaa2dc49a0ea831bea1e","amp;dn":"The+Smurfs+2011+R5+%28Cleaned+Audio%29+%28Feel+Free%29+Stumpie1971","amp;tr":["udp%3A%2F%2Ftracker.openbittorrent.com%3A80","udp%3A%2F%2Fopen.demonii.com%3A1337","udp%3A%2F%2Ftracker.coppersurfer.tk%3A6969","udp%3A%2F%2Fexodus.desync.com%3A6969"],"infoHash":"2686880876617ed636ecfaa2dc49a0ea831bea1e","infoHashBuffer":{"type":"Buffer","data":[38,134,136,8,118,97,126,214,54,236,250,162,220,73,160,234,131,27,234,30]},"announce":[],"urlList":[]}}